<?xml version="1.0" encoding="utf-8"?>
<!-- Generator: Adobe Illustrator 27.6.1, SVG Export Plug-In . SVG Version: 6.00 Build 0)  -->
<svg version="1.1" id="Layer_1" xmlns="http://www.w3.org/2000/svg" xmlns:xlink="http://www.w3.org/1999/xlink" x="0px" y="0px"
	 viewBox="0 0 375.3 99.9" style="enable-background:new 0 0 375.3 99.9;" xml:space="preserve">
<style type="text/css">
	.st0{fill:#FF5A5F;}
</style>
<path class="st0" d="M96.3,62.5c-2.3-4.1-5.6-8-10.4-12.4c4.8-4.4,8.1-8.4,10.4-12.4c1.9-3.3,3-6.7,3.4-10c0.1-0.8,0.2-1.8,0.2-2.6
	c0-2.8-0.5-5.6-1.6-8.1c-2.8-7-9.2-11.9-16.6-13c-3.5-0.8-7-0.4-10.7,0.9c-1.2,0.5-2.5,1-3.6,1.5C65.7,7.2,64,8,62.3,8.7l-0.1,0.1
	C47.2,15.7,32,23.1,17,30.9l-0.6,0.3c-1.5,0.8-3.1,1.6-4.7,2.4c-1.8,1-3.7,2-5.5,3.6C2.2,40.4,0,45,0,49.9c0,5,2.2,9.5,6,12.8
	c1.8,1.5,3.7,2.6,5.5,3.6c1.6,0.8,3.2,1.6,4.7,2.4l0.6,0.3C31.8,76.7,47,84.2,62,91.1l0.2,0.1c1.6,0.7,3.3,1.5,5.1,2.3
	c1.1,0.5,2.3,1,3.6,1.5c3.7,1.3,7.2,1.7,10.8,1.2c7.5-1.1,13.8-6.1,16.6-13c1.1-2.6,1.6-5.3,1.6-8.1c0-0.8-0.1-1.8-0.2-2.6
	C99.3,69.2,98.2,65.8,96.3,62.5z M92.8,80.8c-2,4.9-6.5,8.4-11.7,9.1c-2.5,0.3-5,0.1-7.8-0.9c-1-0.3-2-0.8-3.2-1.3
	c-1.6-0.7-3.3-1.5-5-2.3l-0.2-0.1C50,78.4,34.8,71,20,63.3L19.3,63c-1.5-0.8-3.1-1.6-4.6-2.4c-1.6-0.8-3.1-1.7-4.4-2.8
	c-2.4-2.1-3.7-4.9-3.7-8c0-3.1,1.3-5.9,3.7-8c1.3-1.1,2.8-2,4.4-2.8c1.5-0.8,3.1-1.6,4.6-2.4l0.6-0.3c14.9-7.6,30.1-15,45-21.9H65
	c1.6-0.8,3.4-1.5,5-2.3c1.2-0.5,2.2-1,3.2-1.3c2.6-0.8,5.1-1.1,7.7-0.7c5.2,0.7,9.7,4.2,11.7,9.1c1,2.4,1.3,5,1,7.6
	c-0.3,2.5-1.1,5-2.6,7.6c-2,3.6-5.1,7.2-9.7,11.4c-8.1-6.6-15.5-10.6-22.1-12.1c-3.1-0.7-5.9-0.8-8.5-0.5c-2.5,0.4-4.8,1.3-6.8,2.7
	c-4.5,3.1-7.1,8.3-7.1,14.1c0,5.8,2.7,11,7.1,14.1c2,1.4,4.3,2.3,6.8,2.7c2.6,0.4,5.5,0.3,8.5-0.5c6.6-1.5,14.1-5.6,22.2-12.1
	c4.6,4.1,7.7,7.8,9.7,11.4c1.5,2.6,2.3,5.1,2.6,7.6C94,75.9,93.7,78.5,92.8,80.8z M76.2,50c-6.8,5.4-13.2,8.9-18.6,10.1
	c-2.3,0.5-4.3,0.6-6.1,0.3c-1.6-0.2-3-0.8-4.2-1.6C44.7,56.9,43,53.7,43,50c0-3.7,1.6-7,4.4-8.8c1.2-0.8,2.6-1.4,4.2-1.6
	c1.8-0.3,3.9-0.2,6.1,0.3C63,41.1,69.3,44.6,76.2,50z"/>
<g>
	<path class="st0" d="M356,35.8c-6.6,0-9.7,4-9.7,4V18.7h-9.6v55.7c0,0,7.4,0,8.1,0c0.8,0,1.4-0.7,1.4-1.4v-1.7c0,0,0.8,1,2.4,2
		c1.6,1,4,2,7.3,2c10.9,0,19.4-8.4,19.4-19.8C375.3,44.2,366.8,35.8,356,35.8z M354.4,66.3c-3.7,0-6.6-1.9-8.1-4.1V48.8
		c1.5-2,4.7-4.1,8.1-4.1c6.4,0,11.3,4,11.3,10.8S360.8,66.3,354.4,66.3z"/>
	<path class="st0" d="M331.7,52.1v22.4h-9.6V53.2c0-6.2-2-8.7-7.4-8.7c-2.9,0-5.9,1.5-7.8,3.7v26.2h-9.6V36.8h7.6
		c0.8,0,1.4,0.7,1.4,1.4v1.6c2.8-2.9,6.5-4,10.2-4c4.2,0,7.7,1.2,10.5,3.6C330.4,42.2,331.7,45.8,331.7,52.1z"/>
	<path class="st0" d="M274,35.8c-6.6,0-9.7,4-9.7,4V18.7h-9.6v55.7c0,0,7.4,0,8.1,0c0.8,0,1.4-0.7,1.4-1.4v-1.7c0,0,0.8,1,2.4,2
		c1.6,1,4,2,7.3,2c10.9,0,19.4-8.4,19.4-19.8C293.4,44.2,284.9,35.8,274,35.8z M272.4,66.3c-3.7,0-6.6-1.9-8.1-4.1V48.8
		c1.5-2,4.7-4.1,8.1-4.1c6.4,0,11.3,4,11.3,10.8S278.8,66.3,272.4,66.3z"/>
	<g>
		<path class="st0" d="M132.1,35.2c-6.6,0-9.7,4-9.7,4V18.1h-9.6v55.7c0,0,7.4,0,8.1,0c0.8,0,1.4-0.7,1.4-1.4v-1.7c0,0,0.8,1,2.4,2
			c1.6,1,4,2,7.3,2c10.9,0,19.4-8.4,19.4-19.8C151.5,43.6,143,35.2,132.1,35.2z M130.5,65.7c-3.7,0-6.6-1.9-8.1-4.1V48.2
			c1.5-2,4.7-4.1,8.1-4.1c6.4,0,11.3,4,11.3,10.8S136.9,65.7,130.5,65.7z"/>
		<g>
			<path class="st0" d="M174.1,33.9c11.8,0,20.7,8.9,20.7,21c0,11.9-8.8,21.1-21,21.1c-11.8,0-20.7-9.1-20.7-21.1
				C153.2,43.1,162.1,33.9,174.1,33.9z M163.9,54.9c0,5.8,3.7,11.5,10,11.5c6.3,0,10-5.6,10-11.5c0-5.9-3.6-11.5-10-11.5
				C167.7,43.4,163.9,49,163.9,54.9z"/>
			<path class="st0" d="M217.1,33.9c11.8,0,20.7,8.9,20.7,21c0,11.9-8.8,21.1-21,21.1c-11.8,0-20.7-9.1-20.7-21.1
				C196.1,43.1,205,33.9,217.1,33.9z M206.9,54.9c0,5.8,3.7,11.5,10,11.5c6.3,0,10-5.6,10-11.5c0-5.9-3.6-11.5-10-11.5
				C210.6,43.4,206.9,49,206.9,54.9z"/>
			<path class="st0" d="M240.1,18.5h10.6v56.3h-10.6V18.5z"/>
		</g>
	</g>
</g>
</svg>
